<?xml version="1.0" encoding="utf-8"?>
<!-- Generator: Adobe Illustrator 25.2.1, SVG Export Plug-In . SVG Version: 6.00 Build 0)  -->
<svg version="1.1" id="Layer_1" xmlns="http://www.w3.org/2000/svg" xmlns:xlink="http://www.w3.org/1999/xlink" x="0px" y="0px"
	 viewBox="0 0 628 604" style="enable-background:new 0 0 628 604;" xml:space="preserve">
<style type="text/css">
	.st0{fill:#7214BF;}
</style>
<g>
	<path class="st0" d="M616.72,106.26c-2.16,16.68-4.28,33.37-6.37,50.06c-4.54,36.19-9.47,72.34-13.46,108.6
		c-4.22,38.38-31.14,63.41-69.75,63.47c-59.49,0.08-118.98,0.02-178.48,0.02H174.44c4.13,23.05,6.86,45.5,25.11,61.86
		c13.71,12.29,29.7,17.82,47.94,17.81c99.49-0.04,198.98-0.02,298.47,0.02c2.8,0,5.69,0.18,8.39,0.88c5.85,1.5,9.68,7.22,9.25,13.2
		c-0.46,6.23-4.72,11.01-10.83,11.95c-2.13,0.33-4.31,0.42-6.47,0.42c-99.49,0.01-198.98,0.11-298.46-0.04
		c-41.66-0.06-71.91-19.06-88.64-57.21c-5.46-12.45-7.45-26.52-10.22-40.02c-9.57-46.82-18.78-93.71-28.15-140.56
		c-10.19-50.94-20.41-101.87-30.6-152.8c-1.42-7.1-1.37-7.11-8.8-7.11c-19.49-0.01-38.99,0.03-58.49-0.03
		c-8.2-0.02-13.04-3.01-15.11-8.99c-2.49-7.23,1.54-14.88,8.96-16.76c2.08-0.52,4.27-0.81,6.4-0.81c24.5-0.06,49-0.06,73.5-0.03
		c10.08,0.02,14.46,3.61,16.5,13.62c4.16,20.39,8.37,40.78,12.25,61.22c0.75,3.96,2.2,4.97,6.11,4.96
		c50.16-0.14,100.32-0.09,150.48-0.09c105.99,0,211.97-0.01,317.96,0.07c3.24,0,6.81,0.3,9.64,1.67
		C615.54,94.5,617.56,99.79,616.72,106.26z"/>
	<path class="st0" d="M298.69,528.03c-0.41,36.54-30.88,66.38-67.17,65.79c-36.48-0.59-65.96-30.74-65.43-66.92
		c0.54-36.92,30.66-66.43,67.06-65.68C269.87,461.97,299.1,491.77,298.69,528.03z"/>
	<path class="st0" d="M563.78,527.72c-0.22,36.49-29.93,66.14-66.25,66.11c-36.27-0.03-66.16-29.82-66.35-66.12
		c-0.2-36.49,29.75-66.49,66.36-66.5C534.23,461.2,563.99,491.08,563.78,527.72z"/>
</g>
</svg>
