<?xml version="1.0" encoding="utf-8"?>
<!-- Generator: Adobe Illustrator 25.2.1, SVG Export Plug-In . SVG Version: 6.00 Build 0)  -->
<svg version="1.1" id="Layer_1" xmlns="http://www.w3.org/2000/svg" xmlns:xlink="http://www.w3.org/1999/xlink" x="0px" y="0px"
	 viewBox="0 0 757 768" style="enable-background:new 0 0 757 768;" xml:space="preserve">
<style type="text/css">
	.st0{fill:#29ABE2;}
</style>
<g>
	<g>
		<path class="st0" d="M740.85,341.35c-18.01-24.42-42.61-40.63-69.26-53.55c-22.84-11.06-46.6-20.15-70.71-30.42
			c2.22-13.49,4.88-27.67,6.86-41.95c4.96-35.57,6.05-71.05-4.22-106.01c-13.23-44.96-46.89-64.69-92.28-53.23
			c-13.52,3.43-27.62,7.47-39.34,14.68c-30.52,18.83-59.88,39.55-90.93,60.36c-1.66-1.45-5.57-4.91-9.56-8.26
			c-35.22-29.62-71.95-56.69-118.05-67.09c-41.85-9.45-73.74,7.58-87.55,47.68c-4.51,13.18-8.61,27.43-8.42,41.11
			c0.5,37.65,3.35,75.25,5.41,115.7c-2.61,0.92-8.34,2.96-14.1,4.99c-37.52,13.28-73.27,29.78-103.68,56.21
			c-44.25,38.42-45.1,86.23-0.5,123.91c16.63,14.02,35.49,26.03,54.84,36.09c21.62,11.25,44.96,19.25,68.12,28.91
			c-1.21,6.05-2.56,12.01-3.64,18.01c-7.47,40.98-11.01,81.98-1.53,123.17c11.43,49.66,45.94,73.14,94.76,59.51
			c25.72-7.21,50.14-20.83,73.37-34.56c19.46-11.46,36.3-27.3,54.81-41.61c3.19,2.75,6.47,5.6,9.8,8.4
			c33.48,28.15,68.15,54.42,111.1,66.59c51.94,14.73,90.43-6.92,99.86-59.83c5.1-28.59,4.15-58.51,3.64-87.79
			c-0.32-17.74-4.96-35.38-7.55-52.25c23.52-9.95,46.52-18.69,68.65-29.28c26.35-12.59,50.48-28.75,68.83-52.15
			C761.81,400.36,762.16,370.21,740.85,341.35z M438.9,131.52c23.26-18.24,47.97-34.03,76.86-42.03c30.39-8.4,48.58,1.8,56.19,32.34
			c10.53,42.48,4.38,84.44-4.3,126.66c-31.87-5.12-61.73-9.8-91.49-14.92c-3.38-0.58-7-3.33-9.27-6.07
			c-19.06-22.94-37.84-46.13-58.03-70.89C418.41,148.61,428.42,139.76,438.9,131.52z M270.08,497.07
			c-21.6-4.07-40.34-7.58-61.84-11.59c7.21-20.78,13.6-39.21,20.67-59.57C242.89,450.08,255.67,472.15,270.08,497.07z
			 M207.88,282.76c21.39-4.12,40.48-7.79,62.26-11.96c-14.18,24.74-26.93,46.97-41.16,71.79
			C221.63,321.76,215.06,303.14,207.88,282.76z M250.46,390.27c-1.87-3.33-1.51-9.64,0.45-13.1c19.35-34.51,39-68.83,59.33-102.79
			c2.59-4.28,9.45-8.4,14.42-8.48c39.55-0.74,79.13-0.74,118.66-0.16c4.73,0.05,11.35,3.67,13.73,7.66
			c20.3,33.93,40.05,68.2,59.3,102.73c2.24,4.07,2.3,11.54,0.05,15.6c-18.93,34.22-38.31,68.2-58.4,101.76
			c-2.75,4.57-10.06,8.4-15.63,8.98c-19.25,1.98-38.65,2.35-57.51,3.33c-20.3-0.98-40.13-1.4-59.83-3.22
			c-5.18-0.5-12.04-4.09-14.6-8.4C289.86,459.9,270,425.18,250.46,390.27z M538.87,425.15c7.34,21.02,13.76,39.42,20.91,59.93
			c-20.96,4.12-40.4,7.92-62.39,12.22C511.64,472.52,524.37,450.37,538.87,425.15z M538.84,341.9
			c-14.42-24.61-27.3-46.65-41.69-71.21c21.54,4.15,40.63,7.82,62.13,11.96C552.23,303.12,545.99,321.15,538.84,341.9z M383.32,181
			c14.2,16.32,27.19,31.23,41.82,48.05h-82.83C356.61,212.32,369.36,197.4,383.32,181z M196.13,119.91
			c8.05-28.59,24.05-38.26,52.75-30.6c43.25,11.54,76.99,38.89,109.36,67.35c-20.2,25.06-39.37,49.08-58.96,72.74
			c-2.17,2.61-6.55,4.09-10.14,4.7c-28.99,4.88-58.06,9.43-89.27,14.42C190.93,205.98,183.93,163.21,196.13,119.91z M174.5,475.58
			c-43.38-14.63-86.42-30.47-118.13-66.38c-15.45-17.51-14.92-32.74,0.11-50.75c17.29-20.73,40.05-34.11,64.08-45.15
			c17.43-8,35.59-14.34,53.33-21.39c11.78,30.6,23,59.59,34.01,88.66c0.85,2.19,0.85,5.25,0,7.45
			C197.1,416.73,186.09,445.38,174.5,475.58z M251.02,678.7c-30.05,8.26-47.1-1.9-54.92-32.42c-10.85-42.51-4.62-84.52,4.09-127.39
			c21.7,3.85,42.59,9.72,63.71,10.77c24.71,1.21,40.9,11.56,54.28,31.89c11.46,17.45,26.8,32.32,41.19,49.22
			C327.03,639.89,293.77,666.93,251.02,678.7z M384.41,587.24c-14.5-16.69-27.46-31.6-42.19-48.58h83.35
			C411.6,555.13,398.85,570.18,384.41,587.24z M570.92,650.5c-8.18,26.9-23,34.46-50.61,28.09c-32.98-7.6-60.12-26.3-86.23-46.68
			c-8.58-6.68-16.66-14.02-24.66-20.81c20.2-24.95,39.47-48.85,58.91-72.61c1.53-1.87,3.93-3.83,6.2-4.2
			c30.68-5.07,61.39-9.87,93.55-14.97C577.02,562.84,584.31,606.54,570.92,650.5z M708.64,412.37
			c-22.52,25.32-52.57,39.16-83.14,51.78c-10.43,4.3-21.28,7.58-31.79,11.27c-11.83-30.34-23.18-59.25-34.27-88.27
			c-0.84-2.17-0.34-5.25,0.53-7.55c10.77-28.75,21.73-57.4,33.06-87.16c41.06,13.31,81.29,29.04,113.35,60.25
			C727.44,373.24,728.2,390.35,708.64,412.37z"/>
		<path class="st0" d="M438.67,359.33c-20.75,21.12-40.61,41.58-60.94,61.57c-1.74,1.69-7.95,1.74-9.72,0.05
			c-11.96-11.46-23.29-23.58-34.61-35.25c11.49-15.58,12.3-15.6,24.21-3.62c4.62,4.65,9.48,9.03,15.5,14.76
			c14.34-14.2,28.28-27.93,42.14-41.8C427.47,342.85,429.11,343.09,438.67,359.33z"/>
	</g>
	<circle class="st0" cx="384" cy="384" r="68.65"/>
</g>
</svg>
