<?xml version="1.0" encoding="utf-8"?>
<!-- Generator: Adobe Illustrator 25.2.1, SVG Export Plug-In . SVG Version: 6.00 Build 0)  -->
<svg version="1.1" id="Layer_1" xmlns="http://www.w3.org/2000/svg" xmlns:xlink="http://www.w3.org/1999/xlink" x="0px" y="0px"
	 viewBox="0 0 1366 288" style="enable-background:new 0 0 1366 288;" xml:space="preserve">
<style type="text/css">
	.st0{fill:#333333;}
	.st1{fill:#9600F7;}
</style>
<g>
	<polygon class="st0" points="74.82,53.44 0,53.44 0,3.56 202.21,3.56 202.21,53.44 127.01,53.44 127.01,283.67 74.82,283.67 	"/>
	<path class="st0" d="M405.97,170.09c0-66.38-48.73-115.5-115.5-115.5c-65.62,0-116.64,51.81-116.64,117.43
		c0,64.85,47.96,116.27,118.56,116.27c50.65,0,85.17-24.19,104.75-60.64l-42.59-24.56c-10.75,24.19-32.99,39.53-62.17,39.53
		c-36.84,0-61.77-21.11-69.07-52.94h182.65V170.09z M226,146.29c9.22-27.62,33.39-46.04,64.46-46.04
		c32.23,0,55.26,15.73,62.93,46.04H226z"/>
	<path class="st0" d="M421.7,171.62c0-65.61,51.03-117.03,116.65-117.03c50.26,0,89.79,28.78,107.05,69.45l-46.43,19.57
		c-10.36-24.56-32.61-40.29-60.24-40.29c-37.99,0-66.38,30.31-66.38,68.3c0,37.22,28.39,67.92,66.76,67.92
		c29.16,0,50.27-17.27,60.63-41.82l46.43,19.95c-17.65,41.44-55.64,70.6-107.82,70.6C472.74,288.27,421.7,236.09,421.7,171.62z"/>
	<path class="st0" d="M665.74-0.28h51.8v86.33c15.35-19.57,38.37-31.46,67.15-31.46c56.4,0,89.02,34.92,89.02,95.93v133.15h-52.95
		V156.27c0-35.3-16.88-56.79-50.65-56.79c-29.16,0-52.18,21.87-52.18,61.01v123.17h-52.18V-0.28z"/>
	<path class="st0" d="M903.26,59.2h51.42v27.63c14.96-19.57,37.99-32.23,67.15-32.23c56.4,0,89.02,34.92,89.02,95.93v133.15h-52.57
		V155.89c0-34.92-16.88-56.4-50.65-56.4c-29.55,0-52.57,21.49-52.57,61.01v123.17h-51.8V59.2z"/>
	<path class="st1" d="M1249.76,54.58c-64.85,0-116.27,51.44-116.27,117.03c0,64.46,51.41,116.66,116.27,116.66
		c64.46,0,116.24-52.2,116.24-116.66C1366,106.02,1314.21,54.58,1249.76,54.58z M1249.76,239.53c-37.23,0-65.25-30.68-65.25-67.91
		c0-37.98,28.01-68.28,65.25-68.28c36.82,0,65.22,30.31,65.22,68.28C1314.98,208.85,1286.57,239.53,1249.76,239.53z"/>
</g>
</svg>
